<svg xmlns="http://www.w3.org/2000/svg" xmlns:xlink="http://www.w3.org/1999/xlink" id="visual" version="1.1" viewBox="0 468 900 133"><path d="M0 549L18.8 547.5C37.7 546 75.3 543 112.8 535C150.3 527 187.7 514 225.2 501.8C262.7 489.7 300.3 478.3 337.8 473.2C375.3 468 412.7 469 450.2 476.5C487.7 484 525.3 498 562.8 506.8C600.3 515.7 637.7 519.3 675.2 515.8C712.7 512.3 750.3 501.7 787.8 492.5C825.3 483.3 862.7 475.7 881.3 471.8L900 468L900 601L881.3 601C862.7 601 825.3 601 787.8 601C750.3 601 712.7 601 675.2 601C637.7 601 600.3 601 562.8 601C525.3 601 487.7 601 450.2 601C412.7 601 375.3 601 337.8 601C300.3 601 262.7 601 225.2 601C187.7 601 150.3 601 112.8 601C75.3 601 37.7 601 18.8 601L0 601Z" fill="#f0eae3" stroke-linecap="round" stroke-linejoin="miter"/></svg>