<svg id="visual" viewBox="0 0 900 600" width="900" height="600" xmlns="http://www.w3.org/2000/svg" xmlns:xlink="http://www.w3.org/1999/xlink" version="1.1"><path d="M0 187L30 187.2C60 187.3 120 187.7 180 172.2C240 156.7 300 125.3 360 112.2C420 99 480 104 540 116.3C600 128.7 660 148.3 720 150.2C780 152 840 136 870 128L900 120L900 0L870 0C840 0 780 0 720 0C660 0 600 0 540 0C480 0 420 0 360 0C300 0 240 0 180 0C120 0 60 0 30 0L0 0Z" fill="#f0eae3" stroke-linecap="round" stroke-linejoin="miter"></path></svg>